<?xml version="1.0" encoding="UTF-8"?>
<svg version="1.1" xmlns="http://www.w3.org/2000/svg" width="96" height="96">
<path d="M0 0 C9.70994764 -0.62198953 9.70994764 -0.62198953 14.5 1.6875 C17.00763859 4.00706569 18.57137583 5.90464762 20 9 C20 9.99 20 10.98 20 12 C44.42 12 68.84 12 94 12 C91.75 22.125 91.75 22.125 90.48779297 25.41821289 C90.2076535 26.15830093 89.92751404 26.89838898 89.6388855 27.66090393 C89.34297516 28.4237822 89.04706482 29.18666046 88.7421875 29.97265625 C88.43427277 30.78117538 88.12635803 31.58969452 87.80911255 32.42271423 C86.83689228 34.97157922 85.85611732 37.5170483 84.875 40.0625 C84.20906376 41.80381795 83.54369392 43.54535261 82.87890625 45.28710938 C81.25913426 49.52727048 79.63168856 53.76441111 78 58 C70.98922119 58.10157378 63.97863275 58.17153861 56.96728516 58.21972656 C54.58309843 58.23981893 52.19896085 58.26709781 49.81494141 58.30175781 C46.38431662 58.35037859 42.95434445 58.37299312 39.5234375 58.390625 C38.46071625 58.41127014 37.397995 58.43191528 36.30307007 58.45318604 C30.39787672 58.45496909 26.47726171 58.27072522 22 54 C18.51935694 49.01961371 17.12523122 44.42409753 16 38.51171875 C15.66688416 36.90294974 15.3335444 35.29422709 15 33.68554688 C14.49454333 31.17381226 13.99479837 28.66107279 13.5 26.1472168 C13.01434305 23.70304384 12.50824106 21.26377899 12 18.82421875 C11.85820312 18.06904465 11.71640625 17.31387054 11.5703125 16.53581238 C10.78086211 12.48311642 10.78086211 12.48311642 8.078125 9.55004883 C5.40385869 8.84221025 2.73992667 8.37362636 0 8 C0 5.36 0 2.72 0 0 Z " fill="#FFFFFF" transform="translate(0,10)"/>
<path d="M0 0 C2.5 1.5 2.5 1.5 4 4 C4.791013 8.02098277 4.62153384 10.96411027 2.5 14.5 C-1.03588973 16.62153384 -3.97901723 16.791013 -8 16 C-10.5 14.5 -10.5 14.5 -12 12 C-12.791013 7.97901723 -12.62153384 5.03588973 -10.5 1.5 C-6.96411027 -0.62153384 -4.02098277 -0.791013 0 0 Z " fill="#FFFFFF" transform="translate(76,74)"/>
<path d="M0 0 C2.5 1.5 2.5 1.5 4 4 C4.791013 8.02098277 4.62153384 10.96411027 2.5 14.5 C-1.03588973 16.62153384 -3.97901723 16.791013 -8 16 C-10.5 14.5 -10.5 14.5 -12 12 C-12.791013 7.97901723 -12.62153384 5.03588973 -10.5 1.5 C-6.96411027 -0.62153384 -4.02098277 -0.791013 0 0 Z " fill="#FFFFFF" transform="translate(38,74)"/>
</svg>
