<?xml version="1.0" encoding="UTF-8"?>
<svg version="1.1" xmlns="http://www.w3.org/2000/svg" width="96" height="96">
<path d="M0 0 C1.23234375 -0.00515625 2.4646875 -0.0103125 3.734375 -0.015625 C5.66023438 0.00757813 5.66023438 0.00757813 7.625 0.03125 C8.90890625 0.01578125 10.1928125 0.0003125 11.515625 -0.015625 C12.74796875 -0.01046875 13.9803125 -0.0053125 15.25 0 C16.93996094 0.00676758 16.93996094 0.00676758 18.6640625 0.01367188 C21.625 0.53125 21.625 0.53125 23.99023438 2.05664062 C26.26820857 5.50490025 26.19917405 8.65769336 26.15625 12.65625 C26.1600769 13.44016113 26.16390381 14.22407227 26.16784668 15.03173828 C26.17056353 16.68588549 26.1632181 18.34007583 26.14648438 19.99414062 C26.12506892 22.52311162 26.14629097 25.04924214 26.171875 27.578125 C26.16923168 29.18750626 26.16410661 30.79688575 26.15625 32.40625 C26.16434692 33.1605127 26.17244385 33.91477539 26.18078613 34.69189453 C26.12106497 38.04314838 25.85466254 40.18360073 23.99023438 43.00585938 C20.91548873 44.98882911 18.89791609 45.04789164 15.25 45.0625 C14.01765625 45.06765625 12.7853125 45.0728125 11.515625 45.078125 C10.23171875 45.06265625 8.9478125 45.0471875 7.625 45.03125 C5.69914062 45.05445312 5.69914062 45.05445312 3.734375 45.078125 C2.50203125 45.07296875 1.2696875 45.0678125 0 45.0625 C-1.68996094 45.05573242 -1.68996094 45.05573242 -3.4140625 45.04882812 C-6.375 44.53125 -6.375 44.53125 -8.74023438 43.00585938 C-11.01820857 39.55759975 -10.94917405 36.40480664 -10.90625 32.40625 C-10.9100769 31.62233887 -10.91390381 30.83842773 -10.91784668 30.03076172 C-10.92056353 28.37661451 -10.9132181 26.72242417 -10.89648438 25.06835938 C-10.87506892 22.53938838 -10.89629097 20.01325786 -10.921875 17.484375 C-10.91923168 15.87499374 -10.91410661 14.26561425 -10.90625 12.65625 C-10.91434692 11.9019873 -10.92244385 11.14772461 -10.93078613 10.37060547 C-10.87106497 7.01935162 -10.60466254 4.87889927 -8.74023438 2.05664062 C-5.66548873 0.07367089 -3.64791609 0.01460836 0 0 Z " fill="#FFFFFF" transform="translate(62.375,43.46875)"/>
<path d="M0 0 C1.23234375 -0.00515625 2.4646875 -0.0103125 3.734375 -0.015625 C5.66023437 0.00757813 5.66023437 0.00757813 7.625 0.03125 C8.90890625 0.01578125 10.1928125 0.0003125 11.515625 -0.015625 C12.74796875 -0.01046875 13.9803125 -0.0053125 15.25 0 C16.93996094 0.00676758 16.93996094 0.00676758 18.6640625 0.01367188 C21.625 0.53125 21.625 0.53125 23.99023438 2.05664062 C26.26820857 5.50490025 26.19917405 8.65769336 26.15625 12.65625 C26.1600769 13.44016113 26.16390381 14.22407227 26.16784668 15.03173828 C26.17056353 16.68588549 26.1632181 18.34007583 26.14648438 19.99414062 C26.12506892 22.52311162 26.14629097 25.04924214 26.171875 27.578125 C26.16923168 29.18750626 26.16410661 30.79688575 26.15625 32.40625 C26.16434692 33.1605127 26.17244385 33.91477539 26.18078613 34.69189453 C26.12106497 38.04314838 25.85466254 40.18360073 23.99023438 43.00585938 C20.91548873 44.98882911 18.89791609 45.04789164 15.25 45.0625 C14.01765625 45.06765625 12.7853125 45.0728125 11.515625 45.078125 C10.23171875 45.06265625 8.9478125 45.0471875 7.625 45.03125 C5.69914062 45.05445312 5.69914062 45.05445312 3.734375 45.078125 C2.50203125 45.07296875 1.2696875 45.0678125 0 45.0625 C-1.68996094 45.05573242 -1.68996094 45.05573242 -3.4140625 45.04882812 C-6.375 44.53125 -6.375 44.53125 -8.74023438 43.00585938 C-11.01820857 39.55759975 -10.94917405 36.40480664 -10.90625 32.40625 C-10.9100769 31.62233887 -10.91390381 30.83842773 -10.91784668 30.03076172 C-10.92056353 28.37661451 -10.9132181 26.72242417 -10.89648438 25.06835938 C-10.87506892 22.53938838 -10.89629097 20.01325786 -10.921875 17.484375 C-10.91923168 15.87499374 -10.91410661 14.26561425 -10.90625 12.65625 C-10.91434692 11.9019873 -10.92244385 11.14772461 -10.93078613 10.37060547 C-10.87106497 7.01935162 -10.60466254 4.87889927 -8.74023438 2.05664062 C-5.66548873 0.07367089 -3.64791609 0.01460836 0 0 Z " fill="#FFFFFF" transform="translate(18.375,7.46875)"/>
<path d="M0 0 C1.23234375 -0.00515625 2.4646875 -0.0103125 3.734375 -0.015625 C5.66023437 0.00757813 5.66023437 0.00757813 7.625 0.03125 C8.90890625 0.01578125 10.1928125 0.0003125 11.515625 -0.015625 C12.74796875 -0.01046875 13.9803125 -0.0053125 15.25 0 C16.93996094 0.00676758 16.93996094 0.00676758 18.6640625 0.01367188 C22.29442249 0.64826646 23.47785024 1.56833725 25.625 4.53125 C26.14257812 6.7578125 26.14257812 6.7578125 26.15625 9.15625 C26.16398437 10.46335937 26.16398437 10.46335937 26.171875 11.796875 C26.15640625 12.69921875 26.1409375 13.6015625 26.125 14.53125 C26.14046875 15.43359375 26.1559375 16.3359375 26.171875 17.265625 C26.16671875 18.13703125 26.1615625 19.0084375 26.15625 19.90625 C26.15173828 20.69773437 26.14722656 21.48921875 26.14257812 22.3046875 C25.40863153 25.46204265 24.21995779 26.6177097 21.625 28.53125 C18.6640625 29.04882812 18.6640625 29.04882812 15.25 29.0625 C14.01765625 29.06765625 12.7853125 29.0728125 11.515625 29.078125 C10.23171875 29.06265625 8.9478125 29.0471875 7.625 29.03125 C5.69914062 29.05445313 5.69914062 29.05445313 3.734375 29.078125 C2.50203125 29.07296875 1.2696875 29.0678125 0 29.0625 C-1.68996094 29.05573242 -1.68996094 29.05573242 -3.4140625 29.04882812 C-7.04442249 28.41423354 -8.22785024 27.49416275 -10.375 24.53125 C-10.89257812 22.3046875 -10.89257812 22.3046875 -10.90625 19.90625 C-10.91140625 19.03484375 -10.9165625 18.1634375 -10.921875 17.265625 C-10.90640625 16.36328125 -10.8909375 15.4609375 -10.875 14.53125 C-10.89046875 13.62890625 -10.9059375 12.7265625 -10.921875 11.796875 C-10.91414062 10.48976563 -10.91414062 10.48976563 -10.90625 9.15625 C-10.90173828 8.36476563 -10.89722656 7.57328125 -10.89257812 6.7578125 C-9.51890412 0.84842243 -5.46964616 0.02190362 0 0 Z " fill="#FFFFFF" transform="translate(18.375,59.46875)"/>
<path d="M0 0 C1.23234375 -0.00515625 2.4646875 -0.0103125 3.734375 -0.015625 C5.66023438 0.00757813 5.66023438 0.00757813 7.625 0.03125 C8.90890625 0.01578125 10.1928125 0.0003125 11.515625 -0.015625 C12.74796875 -0.01046875 13.9803125 -0.0053125 15.25 0 C16.93996094 0.00676758 16.93996094 0.00676758 18.6640625 0.01367188 C22.29442249 0.64826646 23.47785024 1.56833725 25.625 4.53125 C26.14257812 6.7578125 26.14257812 6.7578125 26.15625 9.15625 C26.16398437 10.46335937 26.16398437 10.46335937 26.171875 11.796875 C26.15640625 12.69921875 26.1409375 13.6015625 26.125 14.53125 C26.14046875 15.43359375 26.1559375 16.3359375 26.171875 17.265625 C26.16671875 18.13703125 26.1615625 19.0084375 26.15625 19.90625 C26.15173828 20.69773437 26.14722656 21.48921875 26.14257812 22.3046875 C25.40863153 25.46204265 24.21995779 26.6177097 21.625 28.53125 C18.6640625 29.04882812 18.6640625 29.04882812 15.25 29.0625 C14.01765625 29.06765625 12.7853125 29.0728125 11.515625 29.078125 C10.23171875 29.06265625 8.9478125 29.0471875 7.625 29.03125 C5.69914062 29.05445313 5.69914062 29.05445313 3.734375 29.078125 C2.50203125 29.07296875 1.2696875 29.0678125 0 29.0625 C-1.68996094 29.05573242 -1.68996094 29.05573242 -3.4140625 29.04882812 C-7.04442249 28.41423354 -8.22785024 27.49416275 -10.375 24.53125 C-10.89257812 22.3046875 -10.89257812 22.3046875 -10.90625 19.90625 C-10.91140625 19.03484375 -10.9165625 18.1634375 -10.921875 17.265625 C-10.90640625 16.36328125 -10.8909375 15.4609375 -10.875 14.53125 C-10.89046875 13.62890625 -10.9059375 12.7265625 -10.921875 11.796875 C-10.91414063 10.48976563 -10.91414063 10.48976563 -10.90625 9.15625 C-10.90173828 8.36476563 -10.89722656 7.57328125 -10.89257812 6.7578125 C-9.51890412 0.84842243 -5.46964616 0.02190362 0 0 Z " fill="#FFFFFF" transform="translate(62.375,7.46875)"/>
</svg>
