<?xml version="1.0" encoding="UTF-8"?>
<svg version="1.1" xmlns="http://www.w3.org/2000/svg" width="640" height="619">
<path d="M0 0 C211.2 0 422.4 0 640 0 C640 204.27 640 408.54 640 619 C428.8 619 217.6 619 0 619 C0 414.73 0 210.46 0 0 Z " fill="#E31F24" transform="translate(0,0)"/>
<path d="M0 0 C68.97 0 137.94 0 209 0 C209.99 5.28 210.98 10.56 212 16 C212.9796678 19.31846967 213.94715209 22.42403262 215.1875 25.625 C215.48938232 26.4185791 215.79126465 27.2121582 216.10229492 28.02978516 C227.10481715 56.02543644 247.73681256 75.96542844 275 88 C278.62532079 89.52571415 282.25051213 90.81852845 286 92 C287.26166992 92.39880371 287.26166992 92.39880371 288.54882812 92.80566406 C296.56655319 95.07229041 304.28769101 95.49480353 312.55273438 95.44604492 C314.73404419 95.43756205 316.91269848 95.46636268 319.09375 95.49804688 C346.80517259 95.63519447 372.35746879 83.11951407 392.1875 64.25 C409.44142646 46.26900371 417.9500635 24.29961899 422 0 C493.94 0 565.88 0 640 0 C640 98.67 640 197.34 640 299 C428.8 299 217.6 299 0 299 C0 200.33 0 101.66 0 0 Z " fill="#FEFEFE" transform="translate(0,320)"/>
<path d="M0 0 C0.63695801 0.20367187 1.27391602 0.40734375 1.93017578 0.6171875 C26.15823769 8.61300319 44.67814813 26.33205413 56.3125 48.6875 C66.38221117 69.40190586 69.20307384 94.87433166 62 117 C61.70198486 117.94311035 61.70198486 117.94311035 61.39794922 118.90527344 C53.13868861 144.55538168 36.01764887 163.78352502 12.25854492 176.0637207 C6.03349365 179.1377066 -0.23363489 181.40532281 -7 183 C-7.86625 183.22300781 -8.7325 183.44601562 -9.625 183.67578125 C-34.91436139 189.07917678 -60.25837747 183.52027043 -82 170 C-102.69666208 155.54157829 -118.15353818 134.05247954 -123 109 C-126.93672049 82.84696176 -122.34990069 57.31536607 -107.19921875 35.39453125 C-105.22727267 32.82651037 -103.16564231 30.40709471 -101 28 C-100.57090332 27.52175781 -100.14180664 27.04351562 -99.69970703 26.55078125 C-74.72186942 -0.88692812 -35.4571138 -11.64826856 0 0 Z " fill="#FDFDFD" transform="translate(345,219)"/>
<path d="M0 0 C1.05703125 0.54269531 2.1140625 1.08539063 3.203125 1.64453125 C18.15402251 9.60664655 31.27295201 21.11563835 41 35 C41.72123047 35.96099609 41.72123047 35.96099609 42.45703125 36.94140625 C52.76758545 51.27824547 57.66730809 68.67500519 59 86 C130.94 86 202.88 86 277 86 C277 92.93 277 99.86 277 107 C205.06 107 133.12 107 59 107 C58.67 110.96 58.34 114.92 58 119 C52.08350267 145.48457819 36.13030403 169.59447523 13.8671875 185.1953125 C-11.75237825 201.43132645 -43.31442873 208.33460342 -73.3112793 201.61669922 C-76.96598855 200.61552846 -80.48485805 199.41303885 -84 198 C-84.72912598 197.71060547 -85.45825195 197.42121094 -86.20947266 197.12304688 C-113.17381393 186.08658827 -134.61190075 165.52304606 -146.3125 138.75 C-147.22254678 136.5057112 -148.12010563 134.25628085 -149 132 C-149.31839844 131.23429688 -149.63679687 130.46859375 -149.96484375 129.6796875 C-152.83423146 122.17074254 -152.95397038 115.36823699 -154 107 C-222.97 107 -291.94 107 -363 107 C-363 100.07 -363 93.14 -363 86 C-294.03 86 -225.06 86 -154 86 C-153.67 82.37 -153.34 78.74 -153 75 C-149.43414714 54.78546927 -138.73450711 36.89487254 -125 22 C-124.12794922 21.00613281 -124.12794922 21.00613281 -123.23828125 19.9921875 C-92.98368526 -12.77727416 -39.04832624 -20.22601212 0 0 Z M-110 25 C-110.47824219 25.42909668 -110.95648438 25.85819336 -111.44921875 26.30029297 C-128.65995431 41.96803521 -140.26371541 63.56135874 -142 87 C-142.46432356 97.36395336 -142.73277565 107.92736097 -140 118 C-139.52240234 119.8253125 -139.52240234 119.8253125 -139.03515625 121.6875 C-135.14617244 135.67897989 -128.8388269 148.20128755 -119 159 C-118.11570313 159.97710937 -117.23140625 160.95421875 -116.3203125 161.9609375 C-101.50816425 177.79340594 -80.06942817 189.58030759 -58.19946289 191.20849609 C-55.25483936 191.30339487 -52.3210959 191.32890815 -49.375 191.3125 C-48.32465576 191.30758545 -47.27431152 191.3026709 -46.19213867 191.29760742 C-20.1875156 190.90930039 2.98268061 180.4478147 21.63671875 162.45703125 C42.05199017 140.65532374 48.17091816 114.39034994 47.21777344 85.36669922 C46.03801464 67.12805141 37.37418066 50.00585383 26 36 C25.36320313 35.21109375 24.72640625 34.4221875 24.0703125 33.609375 C9.40061334 16.28852538 -12.4632798 4.78900174 -35 2 C-62.55811578 -0.04221532 -89.0168214 6.12161555 -110 25 Z " fill="#2C2B2A" transform="translate(363,213)"/>
<path d="M0 0 C1.4540625 1.051875 1.4540625 1.051875 2.9375 2.125 C11.39641829 9.38501649 16.55521611 20.07468185 18 31 C18.72568939 44.60245685 16.14434623 55.89407332 8 67 C7.278125 67.99 6.55625 68.98 5.8125 70 C-1.57522666 78.63031066 -14.40329245 84.27969476 -25.54296875 85.3359375 C-40.4701571 85.4959288 -52.59983049 81.09502342 -63.6875 71 C-73.5458383 60.66971997 -77.55170392 47.58717945 -77.3125 33.59375 C-76.21318746 20.95165583 -69.69971769 9.75488307 -60.625 1.109375 C-42.31503271 -13.60399157 -18.89954496 -13.8596663 0 0 Z " fill="#FDFDFD" transform="translate(345,272)"/>
<path d="M0 0 C11.88860484 8.29277501 18.72800644 19.16927358 22.69921875 32.8828125 C23.02921875 33.8728125 23.35921875 34.8628125 23.69921875 35.8828125 C24.75327308 52.57488598 22.12519078 67.3104655 11.4296875 80.73046875 C1.19021506 91.89103316 -11.98957961 98.15077231 -27.04296875 99.125 C-41.80397994 99.74504726 -54.28684701 95.18381843 -65.80859375 85.8515625 C-76.30232858 76.03369534 -82.72764908 63.07985816 -83.4609375 48.75390625 C-83.87788747 32.23906173 -79.13564665 19.20301295 -67.7109375 7.16796875 C-48.65478687 -10.8998564 -22.47008351 -13.05561056 0 0 Z M-66.00390625 13.96484375 C-74.75015589 25.0761507 -78.48916763 37.83014356 -77.30078125 51.8828125 C-74.75135311 64.65892396 -68.63141435 75.7979692 -58.30078125 83.8828125 C-46.16448642 91.45997012 -33.24912201 95.26288658 -18.9765625 92.16015625 C-5.77669655 87.98555076 4.98764644 80.99938829 11.89453125 68.765625 C12.88336757 66.82457592 13.8101992 64.87129584 14.69921875 62.8828125 C15.09109375 62.0165625 15.48296875 61.1503125 15.88671875 60.2578125 C19.79519122 48.83304681 18.61108166 34.93732669 13.375 24.15625 C6.26984709 11.81081371 -3.44356296 3.03997799 -17.30078125 -1.1171875 C-35.95818708 -4.91964793 -52.86668882 0.13729483 -66.00390625 13.96484375 Z " fill="#2B2B2B" transform="translate(345.30078125,264.1171875)"/>
<path d="M0 0 C1.125 3.75 1.125 3.75 0 6 C-0.31255647 8.85207778 -0.51037482 11.70496854 -0.71875 14.56640625 C-1 17 -1 17 -2 18 C-2.20604085 19.32781878 -2.3662959 20.66295895 -2.5 22 C-2.88888889 25.88888889 -2.88888889 25.88888889 -4 27 C-6.70592245 27.09785121 -9.38631176 27.1299368 -12.09266663 27.12025452 C-12.95106705 27.12110894 -13.80946747 27.12196337 -14.69388002 27.12284368 C-17.5928971 27.12450112 -20.49185732 27.11897282 -23.39086914 27.11352539 C-25.45995584 27.11324355 -27.52904263 27.11340119 -29.59812927 27.1139679 C-35.23426263 27.11425599 -40.87037491 27.10835733 -46.50650334 27.10139394 C-52.38954262 27.09516239 -58.27258232 27.09455676 -64.15562439 27.09336853 C-75.30454228 27.09025462 -86.45345042 27.08204044 -97.602364 27.07201904 C-110.29138268 27.06085974 -122.98040182 27.05534792 -135.66942418 27.05032361 C-161.77962153 27.03985787 -187.88981022 27.02225729 -214 27 C-214 26.34 -214 25.68 -214 25 C-145.03 25 -76.06 25 -5 25 C-4.67 21.37 -4.34 17.74 -4 14 C-3.56403361 11.79884359 -3.07745433 9.60584101 -2.5 7.4375 C-2.11328125 5.95056641 -2.11328125 5.95056641 -1.71875 4.43359375 C-1 2 -1 2 0 0 Z " fill="#551F1E" transform="translate(214,274)"/>
<path d="M0 0 C2.55168789 5.10337579 -0.88101083 11.40505417 -2 17 C-70.97 17 -139.94 17 -211 17 C-211 16.34 -211 15.68 -211 15 C-142.69 15 -74.38 15 -4 15 C-3.36699595 11.83497974 -2.86267089 8.97960922 -2.5625 5.8125 C-2 2 -2 2 0 0 Z " fill="#C72C2D" transform="translate(211,282)"/>
<path d="M0 0 C1.24040039 0.01353516 1.24040039 0.01353516 2.50585938 0.02734375 C4.52486708 0.05068488 6.54372356 0.08654712 8.5625 0.125 C8.5625 1.115 8.5625 2.105 8.5625 3.125 C3.99898485 5.95437939 -0.90557023 5.56008772 -6.125 5.78125 C-9.1482038 6.0949787 -10.89122535 6.54630972 -13.4375 8.125 C-14.4275 7.465 -15.4175 6.805 -16.4375 6.125 C-15.7775 5.465 -15.1175 4.805 -14.4375 4.125 C-15.0975 3.465 -15.7575 2.805 -16.4375 2.125 C-10.81492839 0.2080427 -5.91380615 -0.12389924 0 0 Z " fill="#313131" transform="translate(315.4375,255.875)"/>
<path d="M0 0 C1.78772827 -0.01377686 1.78772827 -0.01377686 3.61157227 -0.02783203 C10.54103744 -0.00367577 16.95995908 0.55969211 23.6875 2.25 C23.6875 2.91 23.6875 3.57 23.6875 4.25 C24.986875 4.188125 24.986875 4.188125 26.3125 4.125 C29.81108468 4.25457721 32.43301597 5.01019656 35.6875 6.25 C35.6875 6.91 35.6875 7.57 35.6875 8.25 C34.52734375 7.98445312 33.3671875 7.71890625 32.171875 7.4453125 C8.53050241 2.07435004 -11.47530948 0.97777433 -35.3125 6.25 C-33.88676031 3.39852061 -32.2960813 3.25142396 -29.3125 2.25 C-19.67012795 0.05916652 -9.83770579 0.04235688 0 0 Z " fill="#C32E31" transform="translate(318.3125,200.75)"/>
<path d="M0 0 C0 0.33 0 0.66 0 1 C-0.89195068 0.99476318 -1.78390137 0.98952637 -2.70288086 0.98413086 C-6.0520087 0.9669603 -9.40108889 0.95448774 -12.75024414 0.94506836 C-14.192309 0.94007852 -15.63436891 0.93328427 -17.07641602 0.92456055 C-28.57353453 0.84151825 -28.57353453 0.84151825 -40 2 C-40.33 2.33 -40.66 2.66 -41 3 C-43.67058851 3.14115161 -46.32432238 3.04247107 -49 3 C-45.7911669 0.86077794 -43.94716153 0.50026695 -40.1875 -0.0625 C-39.17042969 -0.21847656 -38.15335937 -0.37445313 -37.10546875 -0.53515625 C-35.56826172 -0.76525391 -35.56826172 -0.76525391 -34 -1 C-33.03964844 -1.18046875 -32.07929688 -1.3609375 -31.08984375 -1.546875 C-20.73406806 -3.06554754 -10.18497849 -2.16044998 0 0 Z " fill="#4B2021" transform="translate(336,204)"/>
<path d="M0 0 C0.6875 2.0625 0.6875 2.0625 1 4 C-4.38027025 5.19088986 -9.45291384 6.2919519 -15 6 C-13 4 -13 4 -10.375 3.875 C-9.59125 3.91625 -8.8075 3.9575 -8 4 C-8 3.01 -8 2.02 -8 1 C-13.28 1 -18.56 1 -24 1 C-24 0.67 -24 0.34 -24 0 C-21.43761495 -0.16861758 -18.87511576 -0.33495773 -16.3125 -0.5 C-15.59126953 -0.54769531 -14.87003906 -0.59539062 -14.12695312 -0.64453125 C-3.89574353 -1.29858118 -3.89574353 -1.29858118 0 0 Z " fill="#232323" transform="translate(331,357)"/>
<path d="M0 0 C-0.26218749 4.4571874 -0.57711289 6.51522698 -3.5625 9.9375 C-4.366875 10.618125 -5.17125 11.29875 -6 12 C-6.33 11.01 -6.66 10.02 -7 9 C-8.65 9.66 -10.3 10.32 -12 11 C-10.34482973 7.41379775 -8.33544279 4.18469471 -6 1 C-3 0 -3 0 0 0 Z " fill="#2E2E2E" transform="translate(362,332)"/>
<path d="M0 0 C2.64 0 5.28 0 8 0 C8.33 1.65 8.66 3.3 9 5 C3.31160882 5.9802248 -2.17294333 6.11948801 -7.9375 6.0625 C-8.81212891 6.05798828 -9.68675781 6.05347656 -10.58789062 6.04882812 C-12.72529047 6.03714834 -14.86265463 6.01921689 -17 6 C-13.36280395 3.57520264 -11.14296518 3.61337423 -6.8125 3.375 C-5.54019531 3.30023438 -4.26789063 3.22546875 -2.95703125 3.1484375 C-1.49330078 3.07496094 -1.49330078 3.07496094 0 3 C0 2.01 0 1.02 0 0 Z " fill="#222222" transform="translate(320,257)"/>
<path d="M0 0 C0.67359336 2.09562378 1.1227239 3.52663637 0.5625 5.6875 C-0.20961174 8.86173715 -0.35136935 11.99255569 -0.5625 15.25 C-0.68818359 17.14492188 -0.68818359 17.14492188 -0.81640625 19.078125 C-0.87699219 20.04234375 -0.93757813 21.0065625 -1 22 C-1.33 22 -1.66 22 -2 22 C-2.33 19.36 -2.66 16.72 -3 14 C-3.99 14.495 -3.99 14.495 -5 15 C-6.4783226 12.04335481 -6.06032783 9.25770263 -6 6 C-4.68 6 -3.36 6 -2 6 C-1.34 4.02 -0.68 2.04 0 0 Z " fill="#1E1E1E" transform="translate(269,294)"/>
<path d="M0 0 C0.66 0 1.32 0 2 0 C5.45905771 3.45905771 8 7.06644677 8 12 C7.34 12 6.68 12 6 12 C6 11.01 6 10.02 6 9 C5.34 9 4.68 9 4 9 C3.67 9.99 3.34 10.98 3 12 C0.60676196 9.60676196 0.55803891 8.26851362 0 5 C-0.33 4.01 -0.66 3.02 -1 2 C-0.67 1.34 -0.34 0.68 0 0 Z " fill="#303030" transform="translate(359,283)"/>
<path d="M0 0 C3.2542015 2.83430453 4.5206753 4.68607774 5 9 C4.34 7.68 3.68 6.36 3 5 C2.34 5 1.68 5 1 5 C1.144375 5.721875 1.28875 6.44375 1.4375 7.1875 C1.95833333 9.79166667 2.47916667 12.39583333 3 15 C-0.04049801 11.35140239 -1.96518762 7.2555467 -4 3 C-2.68 2.01 -1.36 1.02 0 0 Z " fill="#232323" transform="translate(358,278)"/>
<path d="M0 0 C1.125 3.75 1.125 3.75 0 6 C-0.31255647 8.85207778 -0.51037482 11.70496854 -0.71875 14.56640625 C-1 17 -1 17 -2 18 C-2.36760731 20.32817964 -2.70241581 22.6618385 -3 25 C-3.33 25 -3.66 25 -4 25 C-4.45183158 16.49887248 -3.87527644 7.75055289 0 0 Z " fill="#4A2120" transform="translate(214,274)"/>
<path d="M0 0 C0.66 0.99 1.32 1.98 2 3 C1.01 3 0.02 3 -1 3 C-1.33 4.65 -1.66 6.3 -2 8 C-2.99 8 -3.98 8 -5 8 C-5.66 7.01 -6.32 6.02 -7 5 C-6.34 3.68 -5.68 2.36 -5 1 C-3.35 1.33 -1.7 1.66 0 2 C0 1.34 0 0.68 0 0 Z " fill="#313131" transform="translate(287,266)"/>
<path d="M0 0 C0 0.33 0 0.66 0 1 C-0.96679688 1.12117187 -1.93359375 1.24234375 -2.9296875 1.3671875 C-10.35329954 2.32270192 -17.68524956 3.38214931 -25 5 C-24 3 -24 3 -21.76953125 1.9140625 C-14.86672437 -0.36415585 -7.20884353 -0.13601592 0 0 Z " fill="#B72C30" transform="translate(308,202)"/>
<path d="M0 0 C0.75 1.5625 0.75 1.5625 1 4 C-0.13084437 6.50286409 -1.52139516 8.67007722 -3 11 C-3.66 10.01 -4.32 9.02 -5 8 C-5.99 8.33 -6.98 8.66 -8 9 C-7.3125 6.5625 -7.3125 6.5625 -6 4 C-3.375 3.1875 -3.375 3.1875 -1 3 C-0.67 2.01 -0.34 1.02 0 0 Z " fill="#212121" transform="translate(365,325)"/>
<path d="M0 0 C-1.15173355 2.46800047 -2.04783565 4.04783565 -4 6 C-6.125 5.625 -6.125 5.625 -8 5 C-7.67 3.35 -7.34 1.7 -7 0 C-3.86650268 -1.04449911 -3.01031744 -0.93423645 0 0 Z " fill="#343434" transform="translate(367,324)"/>
<path d="M0 0 C0.66 0 1.32 0 2 0 C2 0.99 2 1.98 2 3 C2.66 3 3.32 3 4 3 C3.34 4.65 2.68 6.3 2 8 C1.01 8 0.02 8 -1 8 C-1.625 5.125 -1.625 5.125 -2 2 C-1.34 1.34 -0.68 0.68 0 0 Z " fill="#242424" transform="translate(363,292)"/>
<path d="M0 0 C0.66 0.99 1.32 1.98 2 3 C1.401875 3.53625 0.80375 4.0725 0.1875 4.625 C-2.21315594 7.23142645 -3.54018514 9.7884073 -5 13 C-5.66 13 -6.32 13 -7 13 C-5.35821735 8.22390502 -2.73453298 4.20617096 0 0 Z " fill="#4A1F1F" transform="translate(228,247)"/>
<path d="M0 0 C0.99 0.66 1.98 1.32 3 2 C2.67 3.98 2.34 5.96 2 8 C1.01 8.33 0.02 8.66 -1 9 C-1.66 8.34 -2.32 7.68 -3 7 C-3 6.01 -3 5.02 -3 4 C-2.01 4 -1.02 4 0 4 C0 2.68 0 1.36 0 0 Z " fill="#353535" transform="translate(365,296)"/>
</svg>
