<?xml version="1.0" encoding="UTF-8"?>
<svg version="1.1" xmlns="http://www.w3.org/2000/svg" width="100" height="100">
<path d="M0 0 C1.10658966 0.00607269 1.10658966 0.00607269 2.23553467 0.01226807 C3.01289978 0.00876343 3.79026489 0.00525879 4.59118652 0.00164795 C7.16803849 -0.00717493 9.74461727 -0.00131833 12.32147217 0.00543213 C14.10744276 0.00408564 15.89341299 0.00214524 17.67938232 -0.00036621 C21.42534876 -0.00331823 25.17121992 0.00098264 28.91717529 0.01031494 C33.7261005 0.02170953 38.53480248 0.01515047 43.34371948 0.00317001 C47.03250825 -0.00404651 50.72124383 -0.00176162 54.41003418 0.0034256 C56.18351264 0.00476267 57.95699587 0.00311237 59.73046875 -0.00153351 C62.20624642 -0.00659536 64.68165927 0.0011065 67.15740967 0.01226807 C67.89513611 0.0082196 68.63286255 0.00417114 69.39294434 0 C74.46794339 0.04252835 74.46794339 0.04252835 76.69647217 2.27105713 C77.18052201 4.83472853 77.54399752 7.30867024 77.82147217 9.89605713 C77.90566406 10.64572754 77.98985596 11.39539795 78.07659912 12.16778564 C80.15988693 32.3442276 80.15988693 32.3442276 77.69647217 37.27105713 C77.58882736 38.71025474 77.54028696 40.15411624 77.52288818 41.597229 C77.50939835 42.4915564 77.49590851 43.38588379 77.48200989 44.30731201 C77.4715715 45.2750354 77.46113312 46.24275879 77.45037842 47.23980713 C77.41745086 49.27496786 77.38423904 51.310124 77.35076904 53.34527588 C77.30325644 56.56480867 77.2588109 59.78432144 77.21966553 63.00396729 C77.18008453 66.10360952 77.12851672 69.20287192 77.07537842 72.30230713 C77.06696426 73.27003052 77.05855011 74.23775391 77.04988098 75.23480225 C77.03323898 76.12912964 77.01659698 77.02345703 76.99945068 77.94488525 C76.98914322 78.73383179 76.97883575 79.52277832 76.96821594 80.33563232 C76.69647217 82.27105713 76.69647217 82.27105713 74.69647217 84.27105713 C72.14759092 84.46937229 69.70736996 84.54383975 67.15740967 84.52984619 C66.38004456 84.53335083 65.60267944 84.53685547 64.80175781 84.54046631 C62.22490585 84.54928919 59.64832707 84.54343258 57.07147217 84.53668213 C55.28550158 84.53802862 53.49953134 84.53996902 51.71356201 84.54248047 C47.96759558 84.54543248 44.22172442 84.54113162 40.47576904 84.53179932 C35.66684384 84.52040472 30.85814186 84.52696378 26.04922485 84.53894424 C22.36043608 84.54616077 18.6717005 84.54387588 14.98291016 84.53868866 C13.2094317 84.53735159 11.43594846 84.53900189 9.66247559 84.54364777 C7.18669791 84.54870962 4.71128507 84.54100776 2.23553467 84.52984619 C1.49780823 84.53389465 0.76008179 84.53794312 0 84.54211426 C-5.07499905 84.49958591 -5.07499905 84.49958591 -7.30352783 82.27105713 C-7.57527161 80.33563232 -7.57527161 80.33563232 -7.60650635 77.94488525 C-7.62314835 77.05055786 -7.63979034 76.15623047 -7.65693665 75.23480225 C-7.66955788 73.78321716 -7.66955788 73.78321716 -7.68243408 72.30230713 C-7.69942856 71.31105835 -7.71642303 70.31980957 -7.7339325 69.29852295 C-7.78719194 66.12276622 -7.82741353 62.94702312 -7.86602783 59.77105713 C-7.90991768 56.59515889 -7.95660626 53.41936361 -8.00883484 50.24359131 C-8.0408486 48.26490979 -8.06772088 46.28613738 -8.08906555 44.30731201 C-8.10255539 43.41298462 -8.11604523 42.51865723 -8.12994385 41.597229 C-8.13945572 40.80828247 -8.14896759 40.01933594 -8.1587677 39.20648193 C-8.18666365 37.18873921 -8.18666365 37.18873921 -9.30352783 35.27105713 C-9.76417217 26.7759186 -9.37706389 18.34211266 -8.42852783 9.89605713 C-8.35013672 9.16507813 -8.27174561 8.43409912 -8.190979 7.68096924 C-7.42077274 1.45507373 -6.33908729 0.05312137 0 0 Z M-0.30352783 7.27105713 C-0.30352783 7.93105713 -0.30352783 8.59105713 -0.30352783 9.27105713 C0.35647217 9.27105713 1.01647217 9.27105713 1.69647217 9.27105713 C1.69647217 8.61105713 1.69647217 7.95105713 1.69647217 7.27105713 C1.03647217 7.27105713 0.37647217 7.27105713 -0.30352783 7.27105713 Z M5.69647217 7.27105713 C5.69647217 7.93105713 5.69647217 8.59105713 5.69647217 9.27105713 C6.35647217 9.27105713 7.01647217 9.27105713 7.69647217 9.27105713 C7.69647217 8.61105713 7.69647217 7.95105713 7.69647217 7.27105713 C7.03647217 7.27105713 6.37647217 7.27105713 5.69647217 7.27105713 Z M11.69647217 7.27105713 C11.69647217 7.93105713 11.69647217 8.59105713 11.69647217 9.27105713 C12.35647217 9.27105713 13.01647217 9.27105713 13.69647217 9.27105713 C13.69647217 8.61105713 13.69647217 7.95105713 13.69647217 7.27105713 C13.03647217 7.27105713 12.37647217 7.27105713 11.69647217 7.27105713 Z M-3.30352783 16.27105713 C-4.18529188 20.05704402 -4.43817786 23.57442143 -4.42852783 27.45855713 C-4.43110596 28.50398682 -4.43368408 29.5494165 -4.43634033 30.62652588 C-4.48219506 33.24854574 -4.48219506 33.24854574 -3.30352783 35.27105713 C-0.38700609 35.43786822 -0.38700609 35.43786822 2.69647217 35.27105713 C5.13482885 33.28002521 5.13482885 33.28002521 4.89178467 29.35699463 C4.87847593 27.78656362 4.85460819 26.21619492 4.82147217 24.64605713 C4.81244873 23.84426025 4.80342529 23.04246338 4.79412842 22.21636963 C4.7705344 20.2344719 4.73466281 18.25272732 4.69647217 16.27105713 C2.05647217 16.27105713 -0.58352783 16.27105713 -3.30352783 16.27105713 Z M8.69647217 16.27105713 C8.64266639 19.06297917 8.60289548 21.85387123 8.57147217 24.64605713 C8.55471436 25.44011963 8.53795654 26.23418213 8.52069092 27.05230713 C8.50311744 29.12597728 8.59312049 31.19988954 8.69647217 33.27105713 C10.58147487 35.586688 10.58147487 35.586688 13.69647217 35.52105713 C16.81146946 35.586688 16.81146946 35.586688 18.69647217 33.27105713 C18.8416496 30.36170133 18.88278013 27.55111113 18.82147217 24.64605713 C18.81244873 23.84426025 18.80342529 23.04246338 18.79412842 22.21636963 C18.7705344 20.2344719 18.73466281 18.25272732 18.69647217 16.27105713 C15.39647217 16.27105713 12.09647217 16.27105713 8.69647217 16.27105713 Z M22.69647217 16.27105713 C22.64266639 19.06297917 22.60289548 21.85387123 22.57147217 24.64605713 C22.55471436 25.44011963 22.53795654 26.23418213 22.52069092 27.05230713 C22.50311744 29.12597728 22.59312049 31.19988954 22.69647217 33.27105713 C24.58147487 35.586688 24.58147487 35.586688 27.69647217 35.52105713 C30.81146946 35.586688 30.81146946 35.586688 32.69647217 33.27105713 C32.8416496 30.36170133 32.88278013 27.55111113 32.82147217 24.64605713 C32.81244873 23.84426025 32.80342529 23.04246338 32.79412842 22.21636963 C32.7705344 20.2344719 32.73466281 18.25272732 32.69647217 16.27105713 C29.39647217 16.27105713 26.09647217 16.27105713 22.69647217 16.27105713 Z M36.69647217 16.27105713 C36.64266639 19.06297917 36.60289548 21.85387123 36.57147217 24.64605713 C36.55471436 25.44011963 36.53795654 26.23418213 36.52069092 27.05230713 C36.50311744 29.12597728 36.59312049 31.19988954 36.69647217 33.27105713 C38.58147487 35.586688 38.58147487 35.586688 41.69647217 35.52105713 C44.81146946 35.586688 44.81146946 35.586688 46.69647217 33.27105713 C46.8416496 30.36170133 46.88278013 27.55111113 46.82147217 24.64605713 C46.81244873 23.84426025 46.80342529 23.04246338 46.79412842 22.21636963 C46.7705344 20.2344719 46.73466281 18.25272732 46.69647217 16.27105713 C43.39647217 16.27105713 40.09647217 16.27105713 36.69647217 16.27105713 Z M50.69647217 16.27105713 C50.64266639 19.06297917 50.60289548 21.85387123 50.57147217 24.64605713 C50.55471436 25.44011963 50.53795654 26.23418213 50.52069092 27.05230713 C50.50311744 29.12597728 50.59312049 31.19988954 50.69647217 33.27105713 C52.58147487 35.586688 52.58147487 35.586688 55.69647217 35.52105713 C58.81146946 35.586688 58.81146946 35.586688 60.69647217 33.27105713 C60.8416496 30.36170133 60.88278013 27.55111113 60.82147217 24.64605713 C60.81244873 23.84426025 60.80342529 23.04246338 60.79412842 22.21636963 C60.7705344 20.2344719 60.73466281 18.25272732 60.69647217 16.27105713 C57.39647217 16.27105713 54.09647217 16.27105713 50.69647217 16.27105713 Z M64.69647217 16.27105713 C64.64266639 19.06297917 64.60289548 21.85387123 64.57147217 24.64605713 C64.55471436 25.44011963 64.53795654 26.23418213 64.52069092 27.05230713 C64.50311744 29.12597728 64.59312049 31.19988954 64.69647217 33.27105713 C66.59402361 35.62079531 66.59402361 35.62079531 69.82147217 35.39605713 C70.77022217 35.35480713 71.71897217 35.31355713 72.69647217 35.27105713 C74.0406063 32.58278887 73.8288708 30.45870311 73.82147217 27.45855713 C73.82405029 26.42086182 73.82662842 25.3831665 73.82928467 24.31402588 C73.70723391 21.51762771 73.33010572 18.99165834 72.69647217 16.27105713 C70.05647217 16.27105713 67.41647217 16.27105713 64.69647217 16.27105713 Z M4.69647217 48.27105713 C4.69647217 58.83105713 4.69647217 69.39105713 4.69647217 80.27105713 C10.63647217 80.27105713 16.57647217 80.27105713 22.69647217 80.27105713 C22.69647217 69.71105713 22.69647217 59.15105713 22.69647217 48.27105713 C16.75647217 48.27105713 10.81647217 48.27105713 4.69647217 48.27105713 Z M32.69647217 48.27105713 C32.69647217 56.19105713 32.69647217 64.11105713 32.69647217 72.27105713 C43.25647217 72.27105713 53.81647217 72.27105713 64.69647217 72.27105713 C64.69647217 64.35105713 64.69647217 56.43105713 64.69647217 48.27105713 C54.13647217 48.27105713 43.57647217 48.27105713 32.69647217 48.27105713 Z " fill="#FFFFFF" transform="translate(15.30352783203125,7.72894287109375)"/>
</svg>
